<svg xmlns="http://www.w3.org/2000/svg" width="159.51256mm" height="159.51645mm" viewBox="0 0 159.51256 159.51645"><path d="M19.243 98.272c-.058 7.587 6.067 13.805 13.652 13.863 7.587.057 13.805-6.068 13.862-13.653.058-7.586-6.067-13.805-13.653-13.862-7.585-.058-13.804 6.067-13.861 13.652m.218.003c.056-7.467 6.176-13.494 13.642-13.438 7.465.057 13.493 6.177 13.437 13.643-.057 7.466-6.177 13.492-13.643 13.436-7.466-.056-13.493-6.176-13.436-13.641z" style="fill:#274b86;fill-opacity:1;fill-rule:evenodd;stroke:none;stroke-width:.352778" transform="translate(-111.55 -490.548) scale(5.79713)"/><path d="m31.948 86.017-.002.124-.007.89-.002.211v.104h.016a5.6 5.6 0 0 0 1.26-.129l-.007.808.429-.032.01-1.36h.27l-.01 1.395.428-.032.017-2.123-.429-.003-.061-.002c.038.043.06.1.06.16l-.003.335-.27-.003.005-.493h-.104l-.016-.001-.31-.003h-.06a.24.24 0 0 1 .06.162l-.007.895c-.257.059-.534.094-.836.102l.007-.894.485.004.002-.271-.947-.007v.001h-.04c.038.043.062.1.062.162zM35.077 87.476l1.528.481-.199.632.431.096.187-.597.082-.257-1.594-.503-.376-.117-.02-.007c.017.037.021.08.009.121l-.048.15zM35.671 87.223c.41.13.814.01.902-.264a.414.414 0 0 0-.04-.318l.154.049.079-.254-.566-.178.078-.249-.141-.045h.001l-.312-.099c.017.038.02.082.008.124l-.044.14-.576-.181-.01-.004-.031-.009c.016.035.02.078.008.118l-.046.148.163.05a.415.415 0 0 0-.215.24c-.086.274.177.603.588.732m.306-.757c.152.073.237.22.195.353-.047.15-.237.223-.426.164-.188-.06-.302-.229-.255-.379.042-.132.196-.204.362-.177zM37.007 86.681l-.257.817-.042.132.43.097.135-.43.382.121.081-.259-.381-.12.12-.38-.42-.132-.022-.007-.037-.012c.024.052.03.114.011.173zM38.457 87.425l1.476.85-.514.892-.018.032.382.178.003.001.65-1.127-.003-.002-.283-.164-.081-.046-1.263-.727-.25-.144c.007.04.002.08-.018.118l-.08.139z" style="fill:#274b86;fill-opacity:1;fill-rule:nonzero;stroke:none;stroke-width:.352778" transform="translate(-111.55 -490.548) scale(5.79713)"/><path d="m38.341 87.988-.445.774-.322-.185a.176.176 0 0 1-.018.117l-.08.14 2.087 1.203.136-.236-.814-.468.527-.914-.052-.03-.21-.121-.087-.05-.054-.032a.246.246 0 0 1-.027.172l-.446.774-.292-.168.528-.916-.053-.029h.001l-.174-.1-.124-.07-.053-.032a.242.242 0 0 1-.028.17v.001zM29.728 86.797l-.099.025c.032.02.056.054.067.093l.04.159.39-.097.35 1.407.406-.138-.511-2.06-.417.104-.022.006-.038.01a.244.244 0 0 1 .1.142l.066.267z" style="fill:#274b86;fill-opacity:1;fill-rule:nonzero;stroke:none;stroke-width:.352778" transform="translate(-111.55 -490.548) scale(5.79713)"/><path d="M28.827 88.067a.926.926 0 0 0 .531-.541.9.9 0 0 0 .708.234l.131-.31a.645.645 0 0 1-.11.01c-.317 0-.556-.227-.633-.535l-.123-.481-.112.028-.044.01-.191.048-.067.017-.047.011v.001l-.043.011c.045.031.08.08.096.137a1.734 1.734 0 0 1 .083.542.63.63 0 0 1-.44.607l.25.216.01-.005zM30.633 86.29l.482 1.938.406-.14-.512-2.06-.438.108v.002l-.038.01a.247.247 0 0 1 .1.142zM25.49 88.612l.093.145.151-.097a.429.429 0 0 0 .043.333c.159.25.587.259.958.023.371-.238.543-.63.384-.879a.424.424 0 0 0-.283-.179l.144-.092-.148-.234-.514.328-.14-.221-.114.072-.275.176c.04.01.075.036.1.074l.078.123-.533.34-.02.013-.016.01c.036.01.069.033.093.065m1.263-.257c.088.137.018.338-.154.448-.173.11-.384.088-.472-.05-.08-.124-.03-.3.11-.414l.094-.06c.162-.078.343-.05.422.076zM27.164 87.546h.001l.734 1.15.02.032.35-.268-.41-.643.317-.202-.145-.23-.318.203-.266-.416-.37.237-.02.011h.001l-.033.023c.055.016.105.05.14.103zM26.821 89.123l-.062.04-.294.187-.013.009-.053.033a.244.244 0 0 1 .139.103l.124.196.225.353.371-.237 1.345-.858-.146-.229-1.344.858-.292-.455zM22.772 100.738l-.007-.036-.039-.183-.006-.028-.028-.002c-.302-.01-.346-.11-.428-.4l-.01-.034-.033.007-.186.04-.036.008.007.034.085.401-1.29.272-.036.008.007.035.053.25.008.036.035-.008 1.868-.393.036-.007zM22.352 102.55c.725-.234.759-.648.66-.953a.622.622 0 0 0-.307-.38.717.717 0 0 0-.55-.028.655.655 0 0 0-.4.317.631.631 0 0 0-.026.49c.04.125.13.257.251.326-.389.058-.587-.007-.654-.214-.052-.164.01-.29.177-.358l.032-.013-.01-.033-.074-.227-.01-.035-.036.011c-.18.06-.482.289-.335.744.207.644 1.033.432 1.282.353m-.408-.587c-.086-.269.013-.45.297-.542.265-.086.494.012.568.243.08.248-.032.455-.293.538-.151.05-.28.047-.383-.004a.394.394 0 0 1-.189-.235zM22.981 103.346a.65.65 0 0 0-.212-.254l.4-.12.336.7.016.034.034-.016.21-.1.033-.017-.015-.033-.428-.89-.014-.03-.03.01-.986.314-.038.01.016.038.08.19.006.019.02.005a.4.4 0 0 1 .29.218c.05.103.06.21.027.3a.385.385 0 0 1-.208.217.425.425 0 0 1-.32.026.344.344 0 0 1-.199-.182c-.055-.113-.113-.324.1-.457l.028-.017-.014-.03-.107-.222-.018-.038-.034.022c-.432.268-.3.67-.222.83.097.205.233.34.402.398.236.084.464-.004.55-.046.38-.183.437-.588.297-.879zM23.769 105.202c.108.05.265.06.437-.052a.503.503 0 0 0 .226-.323c.034-.155-.007-.327-.118-.496-.112-.172-.248-.277-.402-.309-.2-.041-.386.045-.508.124l-.03.02.019.031.127.196.02.028.03-.017c.116-.063.331-.18.498.077.164.252-.012.384-.05.408-.19.125-.327.002-.408-.123-.022-.032-.043-.07-.064-.105l-.018-.035-.034.022-.172.113-.03.019.019.032c.01.015.02.03.032.045l.03.044c.086.132.118.24.099.332-.014.07-.061.131-.139.18-.166.11-.361.056-.486-.134-.168-.26-.033-.41.122-.521l.028-.02-.019-.03-.136-.207-.02-.032-.033.023c-.149.114-.345.298-.319.573a.787.787 0 0 0 .128.357c.126.194.285.314.461.352a.638.638 0 0 0 .48-.1c.181-.12.258-.278.23-.472zM26.002 106.31l-.024-.025-.171-.175-.024-.025-.024.025-.513.5-.615-.628.513-.502.023-.023-.023-.025-.172-.175-.024-.024-.024.024-1.297 1.27-.025.024.024.024.171.175.024.025.025-.024.58-.569.617.63-.582.568-.024.023.024.025.172.174.023.025.024-.024 1.298-1.27zM26.787 106.91l-.019-.014-.221-.169-.019-.014-.02.012-1.64 1.035-.042.026.039.03.201.153.02.015.02-.014.45-.294.541.41-.168.507-.009.025.02.014.214.162.038.029.015-.047.574-1.843.006-.023m-.589.938-.449-.34.714-.461.004.003-.269.798zM28.664 108.034l-.03-.016-.21-.113-.03-.016-.016.03-.645 1.191-.093-1.612-.001-.018-.017-.01-.256-.138-.03-.016-.016.03-.864 1.596-.016.03.03.017.209.111.03.018.016-.03.645-1.193.107 1.62.001.02.017.008.242.131.03.017.017-.03.863-1.597.017-.03zM29.497 108.29c-.459-.163-.728.083-.82.343-.054.156-.058.383.239.571l.321.204c.254.162.3.236.245.39-.082.233-.381.156-.506.112-.132-.048-.427-.192-.31-.524l.01-.032-.031-.011-.218-.076-.032-.013-.011.034c-.053.151-.087.32.023.522.065.119.172.255.479.363.34.119.753.102.895-.303.091-.256.007-.476-.24-.636l-.45-.282c-.115-.075-.148-.149-.113-.25a.249.249 0 0 1 .127-.152c.108-.052.251-.016.325.01.09.032.372.157.281.457l-.009.03.031.012.217.075.034.013.01-.035c.115-.39-.052-.666-.497-.823zM30.435 108.642l-.034-.007-.007.034-.334 1.784-.006.034.033.006 1.317.248.034.005.006-.034.04-.213.007-.034-.034-.006-1.042-.196.099-.529.943.177.033.007.006-.034.04-.214.007-.033-.033-.007-.943-.177.09-.479 1.024.192.034.007.006-.034.04-.214.007-.034-.033-.005zM32.094 108.9l-.034-.003-.003.034-.134 1.81-.002.034.034.003.244.018.035.002.002-.033.134-1.81.002-.035-.034-.003-.244-.017zM34.825 108.844l-.004-.034-.034.003-.244.024-.034.004.004.035.115 1.142c.015.152-.013.272-.083.358a.452.452 0 0 1-.312.147c-.158.016-.43-.018-.47-.423l-.116-1.137-.003-.035-.034.004-.243.025-.035.004.003.033.121 1.205c.032.315.26.664.797.61.463-.046.733-.358.69-.792l-.118-1.172zM36.55 108.393l-.009-.032-.033.009-.23.063-.032.01.01.033.359 1.305-1.183-1.097-.015-.014-.018.006-.28.077-.034.008.01.034.481 1.75.01.032.033-.008.229-.063.033-.008-.01-.034-.359-1.307 1.198 1.095.015.012.017-.005.266-.072.033-.009-.009-.033zM37.102 108.152l-.012-.031-.033.013-.227.09-.032.014.013.032.678 1.682.013.033.032-.013.227-.092.032-.012-.013-.033zM38.715 107.353l-.007-.047-.043.022-.243.13-.022.012.005.024.26 1.513-1.118-1.056-.017-.016-.022.01-.24.13-.044.023.037.033 1.44 1.289.017.015.021-.01.23-.123.02-.012-.003-.023-.27-1.914zM40.927 107.672l-.021-.027-.027.02-.846.64-.325-.431.766-.578.027-.02-.02-.027-.13-.174-.021-.027-.028.02-.766.579-.293-.39.832-.628.027-.022-.02-.027-.13-.173-.022-.027-.027.02-1.055.796-.028.021.02.028 1.093 1.449.02.026.029-.02 1.07-.807.026-.02-.02-.028zM42.32 106.262l-.248-.215c-.168-.149-.282-.142-.373-.11.023-.14.007-.291-.162-.452-.243-.233-.531-.2-.813.094l-.58.606-.024.025.025.024 1.31 1.255.025.024.024-.025.17-.177.023-.025-.024-.023-.538-.515.387-.405c.184-.193.308-.105.409-.008.05.047.258.236.367.29l.022.011.018-.019.208-.217.024-.024c-.067.02-.178-.048-.25-.114m-.992-.07-.393.412-.445-.427.422-.441c.084-.088.243-.22.445-.026.193.186.095.353-.029.483zM43.21 104.552c-.223-.155-.457-.133-.676.063l-.393.359c-.102.09-.182.103-.27.042a.256.256 0 0 1-.114-.163c-.02-.118.052-.246.098-.311.054-.078.25-.316.514-.15l.027.018.019-.027.131-.19.02-.03-.03-.019c-.344-.214-.656-.126-.925.261-.119.171-.166.347-.137.508.027.147.115.28.25.373.136.095.353.159.614-.077l.282-.256c.224-.2.308-.225.442-.131.202.14.047.407-.028.517-.052.074-.162.204-.313.232a.36.36 0 0 1-.273-.072l-.029-.02-.02.03-.131.187-.02.029.028.02c.132.091.286.168.511.116.131-.031.291-.098.477-.366.143-.206.208-.427.175-.605a.517.517 0 0 0-.23-.338zM42.369 103.323l-.03-.015-.017.03-.117.214-.017.031.03.016 1.593.87.03.016.016-.029.118-.215.016-.03-.03-.017zM43.05 102.455l.224-.534.014-.032-.031-.013-.201-.084-.031-.015-.014.033-.573 1.358-.013.03.032.014.2.085.032.014.013-.032.226-.535 1.44.608.032.014.013-.032.095-.226.014-.033-.032-.012zM44.381 101.022l-.884-.915-.043-.045-.015.06-.068.28-.005.018.015.015.682.672-.916.282-.018.006-.005.02-.068.277-.015.06.06-.02 1.206-.405.7.17.033.01.008-.033.058-.239.009-.033-.033-.008zM44.704 98.196a4.044 4.044 0 0 0-.177.997l-.003.005c-.004.04-.01.084-.018.128-.03.147-.078.267-.12.301l-.01-.003c-.038-.309-.105-.784-.239-1.205-.211-.662-.504-1.176-.862-1.46-.01.355.049.769.185 1.194.148.466.376.873.616 1.17a2.38 2.38 0 0 1 .33.595l.007-.011c.052-.142.094-.24.138-.336.031-.072.138-.277.185-.335.138-.259.36-.58.558-.983.338-.687.445-1.647.445-1.647a3.498 3.498 0 0 0-1.035 1.59z" style="fill:#274b86;fill-opacity:1;fill-rule:nonzero;stroke:none;stroke-width:.352778" transform="translate(-111.55 -490.548) scale(5.79713)"/><path d="M42.814 95.03c.058.35.196.746.41 1.136.235.43.536.785.83 1.03a2.198 2.198 0 0 1 .438.523l.004-.013c.023-.15.047-.253.07-.357a2.45 2.45 0 0 1 .119-.364c.086-.28.241-.638.359-1.072.2-.74.122-1.7.122-1.7a3.496 3.496 0 0 0-.712 1.756c-.037.362-.029.707.018 1.015l-.003.004c.004.04.007.084.007.13 0 .15-.025.277-.06.317h-.01c-.097-.295-.253-.75-.465-1.136-.334-.61-.72-1.059-1.127-1.268Z" style="fill:#274b86;fill-opacity:1;fill-rule:nonzero;stroke:none;stroke-width:.352778" transform="translate(-111.55 -490.548) scale(5.79713)"/><path d="m43.994 94.825-.002.005c.012.038.022.08.03.126.03.147.03.276.003.323l-.009.001c-.153-.27-.393-.686-.675-1.026-.444-.534-.91-.9-1.349-1.028.125.332.336.692.62 1.036.314.376.677.667 1.012.853v-.001c.115.064.238.153.36.26.062.056.119.112.17.167l.001-.012a4.715 4.715 0 0 1 .002-.364 2.52 2.52 0 0 1 .046-.38c.031-.29.115-.672.147-1.12.055-.764-.206-1.693-.206-1.693a3.496 3.496 0 0 0-.362 1.861c.032.362.107.699.212.992z" style="fill:#274b86;fill-opacity:1;fill-rule:nonzero;stroke:none;stroke-width:.352778" transform="translate(-111.55 -490.548) scale(5.79713)"/><path d="M43.11 92.797v.005c.02.036.038.075.055.118.056.139.081.266.064.317l-.009.003c-.201-.237-.517-.599-.86-.878-.537-.439-1.063-.709-1.52-.751.186.302.462.617.808.9.38.309.792.524 1.156.642.125.041.263.104.403.187.071.041.138.086.2.13l-.002-.012a4.97 4.97 0 0 1-.068-.357 2.491 2.491 0 0 1-.028-.381c-.025-.293-.017-.683-.07-1.129-.092-.76-.527-1.622-.527-1.622-.145.478-.201 1.196.002 1.896.1.35.238.665.397.932z" style="fill:#274b86;fill-opacity:1;fill-rule:nonzero;stroke:none;stroke-width:.352778" transform="translate(-111.55 -490.548) scale(5.79713)"/><path d="M41.984 91.445c.133.08.337.252.384.305-.021-.09-.384-.785-.635-1.103-.396-.5-.81-.847-1.202-.975.11.31.297.645.552.967.279.353.602.628.9.806zM21.437 99.433c.042.097.083.195.134.338l.006.01a2.362 2.362 0 0 1 .337-.591h.001c.243-.294.475-.697.63-1.162.14-.424.205-.836.2-1.191-.363.28-.662.79-.88 1.45-.14.418-.212.893-.254 1.2l-.01.004c-.041-.035-.09-.155-.117-.303a1.184 1.184 0 0 1-.015-.128l-.004-.004a4.037 4.037 0 0 0-.165-1 3.492 3.492 0 0 0-1.016-1.602s.095.962.426 1.652c.193.405.41.73.546.99.046.058.15.264.18.337z" style="fill:#274b86;fill-opacity:1;fill-rule:nonzero;stroke:none;stroke-width:.352778" transform="translate(-111.55 -490.548) scale(5.79713)"/><path d="M21.335 96.846c.032.065.096.288.112.365.023.103.045.207.067.357l.005.012a2.355 2.355 0 0 1 .443-.515c.297-.243.601-.594.842-1.02.22-.39.361-.783.423-1.132-.408.206-.799.65-1.14 1.255-.217.383-.379.836-.48 1.131h-.01c-.034-.042-.057-.169-.056-.319.001-.046.004-.09.008-.129l-.002-.004c.05-.308.063-.652.03-1.014a3.487 3.487 0 0 0-.69-1.767s-.09.962.1 1.704c.113.435.264.795.348 1.076z" style="fill:#274b86;fill-opacity:1;fill-rule:nonzero;stroke:none;stroke-width:.352778" transform="translate(-111.55 -490.548) scale(5.79713)"/><path d="M21.843 94.652c.02.071.039.302.04.38.003.106.004.213-.002.363v.014a2.272 2.272 0 0 1 .536-.422 3.684 3.684 0 0 0 1.021-.84c.29-.34.505-.698.633-1.028-.44.123-.909.482-1.36 1.011-.287.336-.532.75-.688 1.019h-.01c-.025-.05-.024-.179.007-.325.01-.046.02-.088.033-.126l-.002-.004c.108-.292.187-.628.223-.99a3.494 3.494 0 0 0-.339-1.865s-.273.926-.227 1.69c.028.449.106.832.135 1.123z" style="fill:#274b86;fill-opacity:1;fill-rule:nonzero;stroke:none;stroke-width:.352778" transform="translate(-111.55 -490.548) scale(5.79713)"/><path d="M23.261 93.035v.002c.365-.114.78-.324 1.163-.63.35-.278.63-.588.818-.889-.456.036-.985.301-1.529.733-.345.274-.665.634-.87.868l-.009-.003c-.015-.052.01-.178.068-.317.018-.042.037-.081.056-.117v-.005c.162-.266.304-.58.408-.928a3.488 3.488 0 0 0 .025-1.896s-.444.857-.547 1.616c-.059.445-.055.836-.082 1.127.006.074-.02.304-.033.381-.019.105-.037.21-.073.357l-.001.013a2.283 2.283 0 0 1 .606-.312z" style="fill:#274b86;fill-opacity:1;fill-rule:nonzero;stroke:none;stroke-width:.352778" transform="translate(-111.55 -490.548) scale(5.79713)"/><path d="M24.101 91.338c.3-.173.627-.446.91-.795.26-.319.45-.653.564-.96-.393.123-.812.464-1.213.96-.256.315-.626 1.007-.647 1.095a2.45 2.45 0 0 1 .386-.3zM40.066 102.573c.082-3.493-3.316-4.11-3.316-4.11.181 5.4-1.939 7.028-1.939 7.028-2.396-.98-2.49-3.162-2.49-3.162 2.637-1.495 2.748-4.027 2.748-4.027-1.404-.048-3.705 1.025-3.705 1.025-.437 3.99-2.63 5.619-2.63 5.619-2.1-1.032-2.083-3.436-2.083-3.436 2.154-1.074 2.512-2.144 2.512-2.144-4.952-.333-4.656-5.175-4.656-5.175-1.107 2.119-1.03 4.152-1.03 4.152.081 3.976 2.173 6.08 2.173 6.08 2.948 3.683 7.313 3.477 7.313 3.477 7.064-.225 7.103-5.327 7.103-5.327z" style="fill:#274b86;fill-opacity:1;fill-rule:nonzero;stroke:none;stroke-width:.352778" transform="translate(-111.55 -490.548) scale(5.79713)"/><path d="M28.316 96.587s.314-2.512 1.273-4.52c0 0-1.63.376-2.946.902 0 0-.405 2.085 1.673 3.618zM32.168 93.27c-.135.738-.55 4.229-.55 4.229 1.11.027 1.833-.3 1.833-.3l.041-5.49c-1.625-.142-3.644.305-3.644.305-.723 1.325-1.33 4.685-1.33 4.685a3.8 3.8 0 0 0 1.512.64c.272-1.717.692-3.6.692-3.6.38-1.199 1.135-.952 1.135-.952.222.057.499.06.499.06-.13.09-.188.423-.188.423zM31.913 88.906s-4.576.241-5.213 3.823c0 0 1.835-.651 2.983-.902 0 0 1.022-1.97 2.23-2.921zM33.514 88.935c-.37-.058-1.257-.027-1.257-.027-1.582 1.355-2.278 2.884-2.278 2.884 1.741-.375 3.515-.305 3.515-.305zM33.698 91.525s2.53.13 4.1.53c0 0-.4-1.094-1.7-2.583 0 0-1.087-.47-2.381-.536zM38.056 92.131s1.641.438 2.728 1.019c0 0-1.294-2.34-4.336-3.545 0 0 1.156 1.248 1.608 2.526z" style="fill:#274b86;fill-opacity:1;fill-rule:nonzero;stroke:none;stroke-width:.352778" transform="translate(-111.55 -490.548) scale(5.79713)"/><path d="M43.454 100.062s1.077-3.098-1.132-6.794c0 0-1.234-.637-2.802-1.093 0 0 .814 2.336.874 4.223 0 0 2.488.998 3.06 3.664zM36.777 96.235s1.142-.116 2.058.265c0 0-.2-2.664-.947-4.204 0 0-1.808-.531-4.192-.568l-.042 5.416s.742-.197 1.558-.616c0 0-.028-2.357.486-3.157 0 0 .244-.387.798-.327 0 0 .208.03.374.003 0 0-.1.331-.102.595 0 0-.04 1.594.009 2.593z" style="fill:#274b86;fill-opacity:1;fill-rule:nonzero;stroke:none;stroke-width:.352778" transform="translate(-111.55 -490.548) scale(5.79713)"/></svg>